<svg xmlns="http://www.w3.org/2000/svg" xmlns:xlink="http://www.w3.org/1999/xlink" width="35" height="32.997" viewBox="0 0 35 32.997">
  <defs>
    <linearGradient id="linear-gradient" x1="0.839" y1="-0.272" x2="-0.233" y2="2.463" gradientUnits="objectBoundingBox">
      <stop offset="0" stop-color="#a7a7a7"/>
      <stop offset="1" stop-color="#626262"/>
    </linearGradient>
  </defs>
  <path id="Calendar" d="M-12430.5,9823.293a6.811,6.811,0,0,1-7-6.608v-15.859a6.813,6.813,0,0,1,7-6.608h1.982v-2.6a1.362,1.362,0,0,1,1.4-1.32,1.361,1.361,0,0,1,1.4,1.32v2.6h11.2v-2.6a1.362,1.362,0,0,1,1.4-1.32,1.361,1.361,0,0,1,1.4,1.32v2.6h2.217a6.813,6.813,0,0,1,7,6.608v15.859a6.811,6.811,0,0,1-7,6.608Zm-4.2-6.608a4.094,4.094,0,0,0,4.2,3.968h21a4.092,4.092,0,0,0,4.2-3.968V9804.9h-29.4Zm29.4-14.427v-1.433a4.091,4.091,0,0,0-4.2-3.965h-2.217v2.16a1.363,1.363,0,0,1-1.4,1.323,1.365,1.365,0,0,1-1.4-1.323v-2.16h-11.2v2.16a1.364,1.364,0,0,1-1.4,1.323,1.364,1.364,0,0,1-1.4-1.323v-2.16h-1.982a4.093,4.093,0,0,0-4.2,3.965v1.433Zm-8.05,14.979a1.362,1.362,0,0,1-1.4-1.323,1.362,1.362,0,0,1,1.4-1.321h3.967a1.363,1.363,0,0,1,1.4,1.321,1.364,1.364,0,0,1-1.4,1.323Zm-8.634,0a1.362,1.362,0,0,1-1.4-1.323,1.362,1.362,0,0,1,1.4-1.321h3.967a1.364,1.364,0,0,1,1.4,1.321,1.365,1.365,0,0,1-1.4,1.323Zm-8.634,0a1.364,1.364,0,0,1-1.4-1.323,1.363,1.363,0,0,1,1.4-1.321h3.967a1.364,1.364,0,0,1,1.4,1.321,1.365,1.365,0,0,1-1.4,1.323Zm17.268-5.946a1.362,1.362,0,0,1-1.4-1.323,1.36,1.36,0,0,1,1.4-1.321h3.967a1.362,1.362,0,0,1,1.4,1.321,1.364,1.364,0,0,1-1.4,1.323Zm-8.634,0a1.362,1.362,0,0,1-1.4-1.323,1.36,1.36,0,0,1,1.4-1.321h3.967a1.362,1.362,0,0,1,1.4,1.321,1.365,1.365,0,0,1-1.4,1.323Zm-8.634,0a1.364,1.364,0,0,1-1.4-1.323,1.362,1.362,0,0,1,1.4-1.321h3.967a1.362,1.362,0,0,1,1.4,1.321,1.365,1.365,0,0,1-1.4,1.323Z" transform="translate(12437.5 -9790.296)" fill="url(#linear-gradient)"/>
</svg>
