<svg xmlns="http://www.w3.org/2000/svg" xmlns:xlink="http://www.w3.org/1999/xlink" width="31.234" height="31.234" viewBox="0 0 31.234 31.234">
  <defs>
    <linearGradient id="linear-gradient" x1="0.839" y1="-0.272" x2="-0.233" y2="2.463" gradientUnits="objectBoundingBox">
      <stop offset="0" stop-color="#a7a7a7"/>
      <stop offset="1" stop-color="#626262"/>
    </linearGradient>
  </defs>
  <g id="settings-line" transform="translate(-2 -2)">
    <path id="Path_1774" data-name="Path 1774" d="M18.1,11a7,7,0,1,0,7,7A6.957,6.957,0,0,0,18.1,11Zm0,12a5,5,0,1,1,5-5A4.951,4.951,0,0,1,18.1,23Z" transform="translate(-0.387 -0.383)" fill="url(#linear-gradient)"/>
    <path id="Path_1775" data-name="Path 1775" d="M32.063,14.4l-2.733-.878-.586-1.464,1.367-2.538a1.641,1.641,0,0,0-.293-1.855L27.476,5.319a1.641,1.641,0,0,0-1.855-.293L23.083,6.392l-1.464-.586-.878-2.733A1.586,1.586,0,0,0,19.277,2H15.958a1.369,1.369,0,0,0-1.367,1.171L13.713,5.9a4.312,4.312,0,0,0-1.562.586L9.613,5.123a1.641,1.641,0,0,0-1.855.293L5.416,7.759a1.641,1.641,0,0,0-.293,1.855l1.269,2.44c-.2.488-.39,1.074-.586,1.562l-2.733.878A1.586,1.586,0,0,0,2,15.958v3.319a1.555,1.555,0,0,0,1.171,1.464l2.733.878.586,1.464L5.123,25.621a1.641,1.641,0,0,0,.293,1.855l2.343,2.343a1.641,1.641,0,0,0,1.855.293l2.538-1.367,1.464.586.878,2.831a1.586,1.586,0,0,0,1.464,1.074h3.319a1.586,1.586,0,0,0,1.464-1.074l.878-2.831,1.464-.586,2.538,1.367a1.641,1.641,0,0,0,1.855-.293l2.343-2.343a1.641,1.641,0,0,0,.293-1.855l-1.367-2.538.586-1.464,2.831-.878a1.586,1.586,0,0,0,1.074-1.464V15.958A1.671,1.671,0,0,0,32.063,14.4Zm-.781,4.588-3.514,1.074-.1.488-.878,2.05-.293.488L28.256,26.3,26.3,28.256,23.083,26.5l-.488.293a9.266,9.266,0,0,1-2.05.878l-.488.1-1.074,3.514H16.251l-1.074-3.514-.488-.1-2.05-.878-.488-.293L8.93,28.256,6.978,26.3l1.757-3.221L8.442,22.6a9.266,9.266,0,0,1-.878-2.05l-.1-.488L3.952,18.984V16.251l3.319-.976.2-.488a8.285,8.285,0,0,1,.878-2.147l.293-.488L6.978,8.93,8.93,6.978l3.123,1.757.488-.293a8.285,8.285,0,0,1,2.147-.878l.488-.2,1.074-3.416h2.733l1.074,3.416.488.2a9.266,9.266,0,0,1,2.05.878l.488.293L26.3,6.978,28.256,8.93,26.5,12.151l.293.488a9.266,9.266,0,0,1,.878,2.05l.1.488,3.514,1.074Z" fill="url(#linear-gradient)"/>
  </g>
</svg>
