<svg width="218" height="131" viewBox="0 0 218 131" fill="none" xmlns="http://www.w3.org/2000/svg">
<path d="M160.376 122.774C159.128 124.528 157.619 126.024 155.85 127.262C154.081 128.5 152.364 129.377 150.7 129.893C148.931 130.512 147.318 130.719 145.861 130.512C144.301 130.409 143.156 129.79 142.428 128.655C141.595 127.52 141.439 126.385 141.96 125.25C142.376 124.219 143.156 123.238 144.301 122.31C145.341 121.484 146.642 120.711 148.202 119.988C149.763 119.369 151.22 118.853 152.573 118.441C153.509 118.234 154.341 117.925 155.07 117.512C155.798 117.099 156.266 116.79 156.474 116.583C156.683 116.377 156.891 115.448 157.099 113.798C157.307 112.044 157.515 110.083 157.723 107.916C158.139 102.035 159.232 97.5471 161.001 94.4517C162.769 91.2532 165.631 88.519 169.585 86.2491C171.249 85.3205 172.862 84.6498 174.423 84.2371C175.984 83.7212 177.388 83.5149 178.637 83.618C179.886 83.7212 180.874 84.0823 181.602 84.7014C182.435 85.2173 182.851 85.9911 182.851 87.0229C182.851 89.1896 179.365 92.1818 172.394 95.9994C170.729 96.928 169.429 97.7018 168.492 98.3209C167.556 98.94 166.827 99.6622 166.307 100.488C165.891 101.313 165.579 102.396 165.371 103.738C165.163 104.976 164.954 106.73 164.746 109C164.538 109.825 164.434 110.909 164.434 112.25C164.434 113.591 164.694 114.262 165.215 114.262C165.631 114.262 166.567 113.952 168.024 113.333C169.585 112.714 171.197 112.044 172.862 111.321C174.631 110.599 176.296 109.928 177.857 109.309C179.417 108.69 180.51 108.381 181.134 108.381C181.758 108.381 182.071 108.793 182.071 109.619C182.071 109.928 181.654 110.444 180.822 111.167C179.99 111.786 178.845 112.456 177.388 113.179C176.036 113.901 174.475 114.623 172.706 115.345C171.041 116.068 169.377 116.687 167.712 117.202C165.943 117.718 164.538 118.337 163.498 119.06C162.561 119.782 161.521 121.02 160.376 122.774ZM171.926 92.1302C171.926 92.3366 172.238 92.2334 172.862 91.8207C173.591 91.408 174.319 90.9437 175.047 90.4278C175.88 89.8087 176.556 89.2412 177.076 88.7253C177.596 88.2095 177.7 87.9515 177.388 87.9515C177.18 87.9515 176.764 88.1579 176.14 88.5706C175.515 88.8801 174.891 89.2928 174.267 89.8087C173.643 90.3246 173.07 90.8405 172.55 91.3564C172.134 91.7691 171.926 92.027 171.926 92.1302ZM150.544 124.477C151.792 123.445 152.26 122.877 151.948 122.774C151.636 122.774 151.064 122.929 150.231 123.238C149.399 123.651 148.515 124.115 147.578 124.631C146.642 125.25 146.174 125.611 146.174 125.715C146.174 126.231 146.694 126.334 147.734 126.024C148.671 125.818 149.607 125.302 150.544 124.477Z" fill="black"/>
<path d="M100.946 127.881C99.6976 127.881 99.1774 127.262 99.3855 126.024C99.4895 124.889 100.218 123.238 101.57 121.072C102.923 118.905 104.744 116.274 107.033 113.179C109.322 109.98 111.975 106.42 114.993 102.5C117.074 99.6107 120.299 95.1741 124.669 89.1897C129.04 83.2054 134.034 76.5504 139.653 69.2248C145.375 61.7959 151.41 54.2124 157.757 46.474C164.208 38.6325 170.503 31.5132 176.642 25.1161C182.885 18.7191 188.66 13.457 193.966 9.3299C199.377 5.20278 203.851 3.13922 207.389 3.13922C209.886 3.13922 212.279 4.11941 214.568 6.07979C216.857 8.04017 218.002 11.0839 218.002 15.211C218.002 20.8858 216.285 26.5606 212.851 32.2354C209.418 37.9102 205.048 43.3787 199.741 48.6407C194.435 53.9028 188.556 58.8554 182.105 63.4984C175.758 68.0382 169.567 72.0106 163.532 75.4155C157.497 78.7172 152.086 81.3482 147.3 83.3086C142.514 85.269 139.08 86.2492 136.999 86.2492C136.375 86.2492 135.803 86.3523 135.282 86.5587C134.866 86.6619 134.294 87.0746 133.566 87.7968C132.941 88.5191 132.109 89.6024 131.068 91.0469C130.028 92.4914 128.571 94.5034 126.698 97.0829C125.658 98.5273 125.294 99.198 125.606 99.0948C126.022 98.8885 127.479 97.7535 129.976 95.6899C131.537 94.555 133.201 93.42 134.97 92.2851C136.739 91.0469 138.508 89.9636 140.277 89.035C142.046 88.0032 143.763 87.1262 145.427 86.4039C147.092 85.5785 148.549 84.9594 149.797 84.5467C152.919 83.5149 155.364 83.6181 157.133 84.8562C159.006 85.9912 159.942 88.0548 159.942 91.0469C159.942 93.42 159.162 96.1542 157.601 99.2496C156.04 102.345 153.959 105.492 151.358 108.69C148.861 111.889 146 114.881 142.774 117.667C139.653 120.556 136.479 122.826 133.254 124.477C130.548 125.921 127.895 126.85 125.294 127.262C122.797 127.778 120.559 127.83 118.583 127.417C116.606 127.004 114.993 126.179 113.744 124.941C112.496 123.703 111.871 122.052 111.871 119.988C111.871 119.06 111.455 118.905 110.623 119.524C109.894 120.246 109.01 121.227 107.97 122.465C106.825 123.703 105.628 124.889 104.38 126.024C103.027 127.262 101.883 127.881 100.946 127.881ZM138.092 81.9157C137.572 82.6379 137.988 82.8959 139.34 82.6895C140.797 82.38 142.982 81.6577 145.896 80.5228C148.809 79.2846 152.243 77.6338 156.196 75.5702C160.254 73.5067 164.572 71.0304 169.151 68.1414C173.833 65.1492 178.619 61.796 183.509 58.0815C188.4 54.264 193.134 50.0852 197.712 45.5454C199.585 43.6882 201.146 42.0889 202.394 40.7476C203.643 39.4063 204.683 38.1682 205.516 37.0332C206.452 35.8983 207.233 34.7633 207.857 33.6283C208.585 32.4934 209.314 31.2552 210.042 29.9139C211.707 26.509 212.799 23.4653 213.319 20.7827C213.944 17.9969 214.1 15.6238 213.788 13.6634C213.476 11.703 212.799 10.2069 211.759 9.17514C210.718 8.04017 209.418 7.47269 207.857 7.47269C205.36 7.47269 202.082 9.07195 198.024 12.2705C193.966 15.469 189.544 19.5445 184.758 24.4971C180.076 29.4496 175.237 34.9181 170.243 40.9024C165.353 46.8867 160.723 52.6131 156.352 58.0815C151.982 63.55 148.185 68.5025 144.959 72.9392C141.734 77.2727 139.444 80.2648 138.092 81.9157ZM117.958 112.714C117.126 114.365 116.554 116.068 116.241 117.822C116.033 119.679 116.241 120.865 116.866 121.381C117.074 121.588 117.646 121.691 118.583 121.691C119.623 121.794 120.768 121.794 122.016 121.691C124.513 121.484 127.167 120.504 129.976 118.75C132.889 117.099 135.699 115.087 138.404 112.714C141.109 110.238 143.658 107.607 146.052 104.821C148.445 101.932 150.37 99.3012 151.826 96.9281C153.283 94.555 154.115 92.5946 154.324 91.0469C154.636 89.3961 154.115 88.5707 152.763 88.5707C150.578 88.5707 147.716 89.4993 144.179 91.3565C140.641 93.1105 137.051 95.2772 133.41 97.8567C129.872 100.333 126.646 102.964 123.733 105.75C120.82 108.432 118.895 110.754 117.958 112.714Z" fill="black"/>
<path d="M10.7708 123.703C7.44124 123.703 4.84 122.929 2.96712 121.381C1.09423 119.937 0.105758 118.079 0.00170898 115.809C0.00170898 113.436 0.938153 110.857 2.81104 108.071C4.68393 105.285 7.70136 102.603 11.8633 100.023C16.1294 97.3405 21.644 94.9158 28.4072 92.7491C35.1704 90.5824 43.3383 88.9831 52.9108 87.9513C55.512 87.6418 58.8936 86.4036 63.0556 84.2369C67.2176 81.967 71.7958 79.078 76.7901 75.5699C81.7845 71.9587 87.091 67.9348 92.7097 63.4981C98.3283 58.9583 103.843 54.3153 109.254 49.5691C114.768 44.8229 120.075 40.1283 125.173 35.4853C130.271 30.7391 134.798 26.4572 138.751 22.6396C142.705 18.7188 145.931 15.4171 148.428 12.7345C151.029 9.9487 152.59 8.0915 153.11 7.1629C153.631 6.13112 153.891 5.51205 153.891 5.30569C153.891 4.7898 153.214 4.42867 151.862 4.22232C150.509 4.01596 148.584 4.06755 146.087 4.37709C143.694 4.58344 140.78 5.09933 137.347 5.92476C134.017 6.647 130.376 7.73038 126.422 9.17487C123.924 10.1035 120.335 11.6511 115.653 13.8179C110.97 15.9846 106.028 18.3577 100.826 20.9372C95.7271 23.4134 90.7848 25.9413 85.9985 28.5208C81.2122 31.1002 77.4144 33.3185 74.6051 35.1757C67.4257 39.6124 61.0787 43.9459 55.5641 48.1762C50.0494 52.3033 45.1591 56.482 40.8931 60.7123C40.685 60.9187 40.1648 61.4346 39.3324 62.26C38.5 63.0854 37.5635 63.9624 36.523 64.891C35.5866 65.8196 34.6501 66.645 33.7137 67.3673C32.8813 68.0895 32.3611 68.4507 32.153 68.4507C31.2165 68.4507 30.8003 68.0895 30.9044 67.3673C31.1125 66.5419 31.5807 65.6133 32.309 64.5815C33.1414 63.4465 34.0779 62.3116 35.1184 61.1766C36.1589 60.0417 36.9913 59.113 37.6155 58.3908C41.4654 54.6764 46.1476 50.7556 51.6622 46.6285C57.1768 42.3982 63.1597 38.2195 69.6107 34.0924C76.0618 29.9652 82.773 26.0445 89.7443 22.3301C96.8196 18.5125 103.687 15.1076 110.346 12.1154C117.109 9.0201 123.508 6.49223 129.543 4.53185C135.578 2.46829 140.832 1.23016 145.307 0.817443C149.885 0.301553 153.527 0.662674 156.232 1.90081C158.937 3.13895 160.29 5.51204 160.29 9.02009C160.29 11.1868 158.989 14.5401 156.388 19.08C153.891 23.6198 150.613 28.9335 146.555 35.021C142.497 41.0053 137.971 47.6087 132.977 54.8312C128.086 62.0536 123.248 69.4309 118.462 76.9629C113.676 84.4949 109.201 92.0268 105.04 99.5588C100.982 107.091 97.8601 114.21 95.6751 120.917C94.2184 125.25 93.0738 127.881 92.2415 128.81C91.5131 129.738 90.5767 129.635 89.4321 128.5C88.5997 127.675 88.2876 126.23 88.4957 124.167C88.8078 122.206 89.3801 119.937 90.2125 117.357C91.0449 114.778 92.0334 112.095 93.1779 109.309C94.4265 106.42 95.6231 103.738 96.7676 101.261C97.9121 98.785 98.8486 96.6699 99.5769 94.9158C100.409 93.1618 100.826 92.0269 100.826 91.511C100.826 91.4078 99.5249 91.3046 96.9237 91.2014C94.3224 90.9951 91.1489 90.8919 87.4032 90.8919C83.6574 90.7887 79.7035 90.6855 75.5415 90.5824C71.3796 90.4792 67.6858 90.4276 64.4603 90.4276C55.0958 97.1342 47.3962 102.654 41.3613 106.988C35.3265 111.218 30.3321 114.571 26.3782 117.048C22.5284 119.524 19.4069 121.226 17.0138 122.155C14.7247 123.187 12.6437 123.703 10.7708 123.703ZM153.891 12.8893C148.064 18.6672 142.861 23.7746 138.283 28.2112C133.809 32.6479 129.543 36.7234 125.485 40.4378C121.531 44.0491 117.682 47.5055 113.936 50.8072C110.19 54.0057 106.132 57.4106 101.762 61.0218C97.4959 64.5299 92.7617 68.3475 87.5592 72.4746C82.3568 76.6017 76.3219 81.3479 69.4546 86.7132C77.8826 87.0227 84.8539 87.2807 90.3686 87.487C95.9872 87.5902 99.3688 87.6934 100.513 87.7965C101.242 87.7965 101.866 87.7965 102.386 87.7965C102.907 87.6934 103.323 87.487 103.635 87.1775C104.051 86.7648 104.467 86.1973 104.883 85.475C105.404 84.7528 106.08 83.6694 106.912 82.2249C110.138 76.447 113.468 70.9269 116.901 65.6649C120.439 60.2996 124.081 54.8827 127.826 49.4143C131.676 43.8427 135.734 38.1163 140 32.2352C144.37 26.354 149 19.9054 153.891 12.8893ZM8.89793 106.059C6.92099 107.916 5.36025 109.877 4.21571 111.94C3.07116 113.901 2.75902 115.345 3.27926 116.274C4.73595 118.75 6.55682 120.04 8.74185 120.143C11.0309 120.246 13.5281 119.73 16.2334 118.595C17.586 118.079 19.511 117.048 22.0081 115.5C24.5053 113.849 27.2626 112.043 30.2801 110.083C33.2975 108.019 36.367 105.904 39.4884 103.738C42.6099 101.468 45.4192 99.4041 47.9164 97.5469C50.5177 95.6897 52.6507 94.142 54.3155 92.9039C55.9803 91.6657 56.8126 91.0467 56.8126 91.0467C56.8126 91.0467 55.9282 91.0983 54.1594 91.2014C52.4946 91.3046 50.2575 91.5626 47.4482 91.9753C44.7429 92.388 41.6214 92.9555 38.0838 93.6777C34.6501 94.3999 31.1645 95.3286 27.6268 96.4635C24.0891 97.4953 20.6555 98.8366 17.3259 100.487C14.1004 102.035 11.2911 103.892 8.89793 106.059Z" fill="black"/>
</svg>
