<svg width="104" height="60" viewBox="0 0 104 60" fill="none" xmlns="http://www.w3.org/2000/svg">
<g clip-path="url(#clip0_505_21790)">
<path d="M56.4748 59.6945H42.0827L23.0164 25.0262L14.5386 39.8143H0.0333252L23.0099 0.656141V0.628174L23.0164 0.643233L23.0273 0.628174V0.656141L56.4748 59.6945Z" fill="white"/>
<path d="M52.6994 15.1215C54.6578 13.6221 55.9177 11.2728 55.9177 8.63318C55.9177 7.14447 55.5151 5.74612 54.8145 4.54354C53.3827 2.08674 50.6953 0.430237 47.6184 0.430237H26.6416V0.905676L35.9462 16.8383H47.6184C49.5311 16.8383 51.2959 16.1972 52.6994 15.1194V15.1215Z" fill="#F7A927"/>
<path d="M66.8109 23.7698C65.0505 21.9735 62.5873 20.8569 59.8607 20.8569H38.0375L49.2135 39.9971H59.8629C65.1572 39.9971 69.4613 35.7935 69.5418 30.5744C69.5418 30.5249 69.5418 30.4754 69.5418 30.426C69.5418 27.8401 68.5017 25.4909 66.8131 23.7677L66.8109 23.7698Z" fill="#F7A927"/>
<path d="M83.4704 0L78.0478 8.40731H65.2202C63.9842 8.40731 62.9071 9.07852 62.3435 10.0767L57.6411 1.96845C59.5408 0.724991 61.8191 0.00215131 64.2671 0.00215131H83.4704V0Z" fill="white"/>
<path d="M88.3077 27.4636C88.3077 30.9251 86.8889 34.0595 84.5954 36.3292C83.1549 37.7533 81.3684 38.8354 79.3708 39.4421L74.2289 30.5744H75.6281V30.5787H76.9467C78.8486 30.5787 80.3935 29.0556 80.3935 27.1732C80.3935 26.2309 80.0084 25.3812 79.3839 24.7637C78.7594 24.1485 77.8998 23.7677 76.9467 23.7677H70.2838L65.1549 14.9236C65.1767 14.9236 65.1984 14.9236 65.2202 14.9236H75.6281C82.6305 14.9236 88.3077 20.5364 88.3077 27.4593V27.4636Z" fill="white"/>
<path d="M68.5081 56.73V59.6881H58.9902L64.2693 51.4894C65.1766 50.0782 65.4247 49.5404 65.4247 48.9143C65.4247 48.0861 64.8589 47.5246 63.9733 47.5246C63.2944 47.5246 62.7265 47.8838 62.5241 48.4884C62.387 48.8691 62.3435 49.1381 62.3195 49.8781H59.1926V49.4973C59.1926 46.4726 61.2098 44.4353 64.1779 44.4353C66.9414 44.4353 68.8911 46.1607 68.8911 48.5809C68.8911 49.9921 68.3928 51.2012 66.9653 53.3761L64.7219 56.7365H68.506L68.5081 56.73Z" fill="#F7A927"/>
<path d="M74.1288 54.824C74.1288 55.7641 74.1506 55.9663 74.3334 56.2567C74.5379 56.6375 75.0362 56.8849 75.5563 56.8849C76.0763 56.8849 76.5311 56.6375 76.7357 56.2352C76.9402 55.8996 76.9837 55.5403 76.9837 54.6454V49.6716C76.9837 48.753 76.9163 48.4174 76.6661 48.0818C76.4397 47.7913 76.0307 47.6106 75.5563 47.6106C74.4922 47.6106 74.1288 48.1484 74.1288 49.6716V54.824ZM80.3827 55.138C80.3827 56.8849 79.9758 58.0057 79.0444 58.8577C78.1827 59.6192 77.0512 60 75.578 60C74.0135 60 72.6992 59.5525 71.8614 58.7673C70.9997 57.9391 70.682 56.7515 70.682 54.3765V49.6716C70.682 47.7677 70.9997 46.6253 71.77 45.8186C72.586 44.9215 73.9221 44.4288 75.441 44.4288C76.8467 44.4288 78.0456 44.8311 78.9313 45.6164C79.9518 46.5134 80.3827 47.6106 80.3827 49.4027V55.138Z" fill="#F7A927"/>
<path d="M91.1713 56.73V59.6881H81.6534L86.9325 51.4894C87.8399 50.0782 88.0879 49.5404 88.0879 48.9143C88.0879 48.0861 87.5222 47.5246 86.6387 47.5246C85.9598 47.5246 85.3918 47.8838 85.1895 48.4884C85.0546 48.8691 85.0089 49.1381 84.9849 49.8781H81.858V49.4973C81.858 46.4726 83.8752 44.4353 86.8432 44.4353C89.6068 44.4353 91.5565 46.1607 91.5565 48.5809C91.5565 49.9921 91.0582 51.2012 89.6307 53.3761L87.3872 56.7365H91.1713V56.73Z" fill="#F7A927"/>
<path d="M98.6046 48.7981L95.9542 53.9053H98.6046V48.7981ZM93.2799 56.773V53.9053L97.9018 44.7429H101.89V53.9053H103.092V56.773H101.89V59.6859H98.6046V56.773H93.2799Z" fill="#F7A927"/>
</g>
<defs>
<clipPath id="clip0_505_21790">
<rect width="103.058" height="60" fill="white" transform="translate(0.0333252)"/>
</clipPath>
</defs>
</svg>
