<svg width="104" height="61" viewBox="0 0 104 61" fill="none" xmlns="http://www.w3.org/2000/svg">
<g clip-path="url(#clip0_505_21780)">
<path d="M56.4748 60.6177H42.0827L23.0164 25.9493L14.5386 40.7374H0.0333252L23.0099 1.5793V1.55133L23.0164 1.56639L23.0273 1.55133V1.5793L56.4748 60.6177Z" fill="black"/>
<path d="M52.6994 16.0447C54.6578 14.5452 55.9177 12.196 55.9177 9.55633C55.9177 8.06763 55.5151 6.66928 54.8145 5.4667C53.3827 3.0099 50.6953 1.35339 47.6184 1.35339H26.6416V1.82883L35.9462 17.7614H47.6184C49.5311 17.7614 51.2959 17.1203 52.6994 16.0425V16.0447Z" fill="#F7A927"/>
<path d="M66.8109 24.693C65.0505 22.8966 62.5873 21.7801 59.8607 21.7801H38.0375L49.2135 40.9203H59.8629C65.1572 40.9203 69.4613 36.7166 69.5418 31.4976C69.5418 31.4481 69.5418 31.3986 69.5418 31.3491C69.5418 28.7632 68.5017 26.414 66.8131 24.6908L66.8109 24.693Z" fill="#F7A927"/>
<path d="M83.4704 0.923157L78.0478 9.33047H65.2202C63.9842 9.33047 62.9071 10.0017 62.3435 10.9999L57.6411 2.8916C59.5408 1.64815 61.8191 0.925308 64.2671 0.925308H83.4704V0.923157Z" fill="black"/>
<path d="M88.3077 28.3868C88.3077 31.8482 86.8889 34.9827 84.5954 37.2523C83.1549 38.6765 81.3684 39.7586 79.3708 40.3653L74.2289 31.4976H75.6281V31.5019H76.9467C78.8486 31.5019 80.3935 29.9787 80.3935 28.0964C80.3935 27.1541 80.0084 26.3043 79.3839 25.6869C78.7594 25.0716 77.8998 24.6908 76.9467 24.6908H70.2838L65.1549 15.8468C65.1767 15.8468 65.1984 15.8468 65.2202 15.8468H75.6281C82.6305 15.8468 88.3077 21.4596 88.3077 28.3825V28.3868Z" fill="black"/>
<path d="M68.5081 57.6532V60.6112H58.9902L64.2693 52.4126C65.1766 51.0013 65.4247 50.4635 65.4247 49.8375C65.4247 49.0092 64.8589 48.4477 63.9733 48.4477C63.2944 48.4477 62.7265 48.807 62.5241 49.4115C62.387 49.7923 62.3435 50.0612 62.3195 50.8013H59.1926V50.4205C59.1926 47.3957 61.2098 45.3585 64.1779 45.3585C66.9414 45.3585 68.8911 47.0838 68.8911 49.504C68.8911 50.9153 68.3928 52.1243 66.9653 54.2993L64.7219 57.6596H68.506L68.5081 57.6532Z" fill="#F7A927"/>
<path d="M74.1288 55.7471C74.1288 56.6872 74.1506 56.8895 74.3334 57.1799C74.5379 57.5607 75.0362 57.8081 75.5563 57.8081C76.0763 57.8081 76.5311 57.5607 76.7357 57.1584C76.9402 56.8228 76.9837 56.4635 76.9837 55.5686V50.5947C76.9837 49.6761 76.9163 49.3405 76.6661 49.0049C76.4397 48.7145 76.0307 48.5338 75.5563 48.5338C74.4922 48.5338 74.1288 49.0716 74.1288 50.5947V55.7471ZM80.3827 56.0612C80.3827 57.8081 79.9758 58.9289 79.0444 59.7808C78.1827 60.5424 77.0512 60.9232 75.578 60.9232C74.0135 60.9232 72.6992 60.4757 71.8614 59.6905C70.9997 58.8622 70.682 57.6747 70.682 55.2996V50.5947C70.682 48.6908 70.9997 47.5485 71.77 46.7417C72.586 45.8446 73.9221 45.352 75.441 45.352C76.8467 45.352 78.0456 45.7543 78.9313 46.5395C79.9518 47.4366 80.3827 48.5338 80.3827 50.3258V56.0612Z" fill="#F7A927"/>
<path d="M91.1713 57.6532V60.6112H81.6534L86.9325 52.4126C87.8399 51.0013 88.0879 50.4635 88.0879 49.8375C88.0879 49.0092 87.5222 48.4477 86.6387 48.4477C85.9598 48.4477 85.3918 48.807 85.1895 49.4115C85.0546 49.7923 85.0089 50.0612 84.9849 50.8013H81.858V50.4205C81.858 47.3957 83.8752 45.3585 86.8432 45.3585C89.6068 45.3585 91.5565 47.0838 91.5565 49.504C91.5565 50.9153 91.0582 52.1243 89.6307 54.2993L87.3872 57.6596H91.1713V57.6532Z" fill="#F7A927"/>
<path d="M98.6046 49.7213L95.9542 54.8285H98.6046V49.7213ZM93.2799 57.6962V54.8285L97.9018 45.6661H101.89V54.8285H103.092V57.6962H101.89V60.6091H98.6046V57.6962H93.2799Z" fill="#F7A927"/>
</g>
<defs>
<clipPath id="clip0_505_21780">
<rect width="103.058" height="60" fill="white" transform="translate(0.0333252 0.923157)"/>
</clipPath>
</defs>
</svg>
