<svg xmlns="http://www.w3.org/2000/svg" width="151.154" height="20.119" viewBox="0 0 151.154 20.119">
  <path id="LAWWD" d="M0,6.332H20.053V.977H7.866V-13.581H0ZM36.7-.808H31.963L34.3-7.557h.057ZM21.03,6.332H29.4l.836-2.287h8.2l.838,2.287h8.366L39.158-13.581h-9.65Zm30.429,0h7.725L61.917-4.713h.055L64.678,6.332H72.4l5.83-19.913H70.619L68.054-1.421H68l-2.9-12.16H58.821L55.893-1.421h-.057l-2.565-12.16H45.657Zm32.52,0H91.7L94.437-4.713h.055L97.2,6.332h7.727l5.828-19.913h-7.615l-2.565,12.16h-.055l-2.9-12.16H91.342L88.414-1.421h-.055l-2.567-12.16H78.177ZM120.515-8.561h4.519c3.6,0,5.048,1.785,5.048,4.937s-1.451,4.937-5.048,4.937h-4.519ZM112.649,6.332h15.48c6.611,0,10.152-2.957,10.152-9.957,0-7.336-3.569-9.957-10.32-9.957H112.649ZM144.367-8.49V-9.873h.876c.477,0,1.183.031,1.183.584,0,.646-.306.8-.86.8ZM146.15-4.8h1.626l-1.518-2.581c1.043-.047,1.732-.49,1.732-1.75,0-1.5-1.011-1.935-2.717-1.935h-2.379V-4.8h1.472v-2.49h.323Zm-4.794-3.118a3.877,3.877,0,0,1,3.933-4.117,3.876,3.876,0,0,1,3.933,4.117,3.875,3.875,0,0,1-3.933,4.117,3.876,3.876,0,0,1-3.933-4.117m-1.932,0a5.862,5.862,0,0,0,5.865,5.865,5.863,5.863,0,0,0,5.865-5.865,5.864,5.864,0,0,0-5.865-5.865,5.863,5.863,0,0,0-5.865,5.865" transform="translate(0 13.787)" fill="#c70000"/>
</svg>
