<svg width="514" height="146" viewBox="0 0 514 146" fill="none" xmlns="http://www.w3.org/2000/svg">
<path d="M91.4496 107.725V93.0305H83.351V107.725H74V54.7916C74 42.6854 76.5047 40.9321 87.1916 40.9321C97.8784 40.9321 101.051 42.8524 101.051 54.7916V107.725H91.4496ZM83.351 54.7916V85.1824H91.4496V54.7916C91.4496 50.2831 90.7817 49.5317 87.3586 49.5317C83.9354 49.5317 83.351 50.2831 83.351 54.7916Z" fill="black"/>
<path d="M136.118 80.2564V94.1994C136.118 105.972 133.696 107.725 122.342 107.725H108.649V41.7671H122.342C133.696 41.7671 136.118 43.4369 136.118 55.2091V60.1351C136.118 66.9814 132.444 68.8182 130.19 69.1521V69.4861C133.696 70.321 136.118 72.2413 136.118 80.2564ZM118.251 65.6455H122.592C125.681 65.6455 126.433 64.5601 126.433 61.3875V55.2091C126.433 51.1181 126.015 50.1162 122.342 50.1162H118.251V65.6455ZM118.251 99.4594H122.342C125.848 99.4594 126.433 98.6245 126.433 94.1994V78.0857C126.433 74.4121 125.932 73.2432 122.592 73.2432H118.251V99.4594Z" fill="black"/>
<path d="M170.765 94.1994C170.765 105.972 168.344 107.725 156.989 107.725H143.297V41.7671H156.989C168.344 41.7671 170.765 43.4369 170.765 55.2091V94.1994ZM161.08 55.2091C161.08 50.8676 160.496 50.1162 156.989 50.1162H152.898V99.4594H156.989C160.496 99.4594 161.08 98.6245 161.08 94.1994V55.2091Z" fill="black"/>
<path d="M204.914 94.6169C204.914 106.89 202.493 108.56 191.138 108.56C179.783 108.56 177.446 106.89 177.446 94.6169V54.7916C177.446 42.6019 179.783 40.9321 191.138 40.9321C202.493 40.9321 204.914 42.6019 204.914 54.7916V94.6169ZM195.229 54.7916C195.229 50.3666 194.645 49.5317 191.222 49.5317C187.798 49.5317 187.047 50.4501 187.047 54.7916V94.6169C187.047 99.2089 187.631 100.044 191.055 100.044C194.728 100.044 195.229 99.0419 195.229 94.6169V54.7916Z" fill="black"/>
<path d="M211.927 94.6169V41.7671H221.528V94.6169C221.528 99.2089 222.196 99.9603 225.619 99.9603C229.042 99.9603 229.71 99.2089 229.71 94.6169V41.7671H239.061V94.6169C239.061 106.89 236.557 108.56 225.536 108.56C214.515 108.56 211.927 106.89 211.927 94.6169Z" fill="black"/>
<path d="M266.186 107.725H246.733V41.7671H256.334V99.3759H266.186V107.725Z" fill="black"/>
<path d="M288.646 107.725V93.0305H280.547V107.725H271.196V54.7916C271.196 42.6854 273.701 40.9321 284.388 40.9321C295.074 40.9321 298.247 42.8524 298.247 54.7916V107.725H288.646ZM280.547 54.7916V85.1824H288.646V54.7916C288.646 50.2831 287.978 49.5317 284.554 49.5317C281.131 49.5317 280.547 50.2831 280.547 54.7916Z" fill="black"/>
<path d="M329.391 41.7671L319.539 84.431V107.725H309.937V84.431L300.419 41.7671H309.937L314.696 71.5734H315.03L320.04 41.7671H329.391Z" fill="black"/>
<path d="M352.935 107.725H334.066V41.7671H352.851V49.6987H343.667V59.3002H352.601V66.8979H343.667V99.4594H352.935V107.725Z" fill="black"/>
<path d="M391.185 63.1407V54.9586C391.185 50.2831 390.767 49.5317 387.094 49.5317C383.42 49.5317 383.003 50.2831 383.003 54.9586V61.4709C383.003 64.1426 383.337 65.061 385.507 66.3969C387.344 67.5658 390.767 69.0686 394.524 71.4064C400.202 74.913 400.87 76.6663 400.87 84.0135V94.6169C400.87 106.807 398.532 108.56 387.177 108.56C375.822 108.56 373.735 106.974 373.735 94.6169V81.5088H383.086V94.6169C383.086 99.2089 383.587 100.044 387.094 100.044C390.6 100.044 391.185 99.2089 391.185 94.6169V84.6814C391.185 81.1748 391.018 80.0059 388.93 78.5866C386.676 77.0003 381.834 74.6625 378.661 72.5752C373.986 69.4861 373.401 67.4823 373.401 61.3039V54.9586C373.401 42.6854 375.655 40.9321 386.927 40.9321C398.198 40.9321 400.536 42.6854 400.536 54.9586V63.1407H391.185Z" fill="black"/>
<path d="M432.846 41.7671L422.995 84.431V107.725H413.393V84.431L403.875 41.7671H413.393L418.152 71.5734H418.486L423.495 41.7671H432.846Z" fill="black"/>
<path d="M456.975 107.725H437.522V41.7671H447.123V99.3759H456.975V107.725Z" fill="black"/>
<path d="M481.939 107.725H462.486V41.7671H472.087V99.3759H481.939V107.725Z" fill="black"/>
<path d="M504.398 107.725V93.0305H496.3V107.725H486.949V54.7916C486.949 42.6854 489.454 40.9321 500.14 40.9321C510.827 40.9321 514 42.8524 514 54.7916V107.725H504.398ZM496.3 54.7916V85.1824H504.398V54.7916C504.398 50.2831 503.731 49.5317 500.307 49.5317C496.884 49.5317 496.3 50.2831 496.3 54.7916Z" fill="black"/>
<path d="M74.1826 28.1099V0.968749H80.4638C84.7288 0.968749 86.8226 3.3339 86.8226 7.67648V10.3518C86.8226 14.6944 84.7288 17.0596 80.4638 17.0596H78.4476V28.1099H74.1826ZM78.4476 13.1823H80.4638C81.8208 13.1823 82.5575 12.5619 82.5575 10.6232V7.40507C82.5575 5.46642 81.8208 4.84605 80.4638 4.84605H78.4476V13.1823ZM96.5058 28.1099V0.968749H102.826C107.246 0.968749 109.146 3.02372 109.146 7.21121V8.87845C109.146 11.6701 108.254 13.4537 106.354 14.2291V14.3067C108.487 14.9658 109.185 16.982 109.185 20.0451V24.8142C109.185 26.1324 109.223 27.1018 109.65 28.1099H105.307C105.075 27.4119 104.92 26.9854 104.92 24.7754V19.8124C104.92 17.2922 104.183 16.478 102.244 16.478H100.771V28.1099H96.5058ZM100.771 12.6007H102.322C103.911 12.6007 104.881 11.9027 104.881 9.73145V7.63771C104.881 5.69906 104.222 4.84605 102.71 4.84605H100.771V12.6007ZM119.511 28.1099V0.968749H131.143V4.84605H123.776V12.0191H129.63V15.8964H123.776V24.2326H131.143V28.1099H119.511ZM146.583 28.4976C142.396 28.4976 140.302 26.0161 140.302 21.6735V20.1226H144.334V21.9837C144.334 23.9224 145.187 24.6203 146.545 24.6203C147.902 24.6203 148.755 23.9224 148.755 21.9062C148.755 19.6573 147.902 18.2227 145.11 15.78C141.543 12.6394 140.38 10.4294 140.38 7.32753C140.38 3.06249 142.59 0.581019 146.738 0.581019C150.887 0.581019 152.942 3.06249 152.942 7.40507V8.52949H148.91V7.13366C148.91 5.19501 148.134 4.45832 146.777 4.45832C145.42 4.45832 144.645 5.19501 144.645 7.05611C144.645 9.03354 145.536 10.4681 148.328 12.9108C151.895 16.0515 153.02 18.2227 153.02 21.596C153.02 26.0161 150.771 28.4976 146.583 28.4976ZM162.832 28.1099V0.968749H167.097V28.1099H162.832ZM177.658 28.1099V0.968749H184.172C188.437 0.968749 190.531 3.3339 190.531 7.67648V21.4021C190.531 25.7447 188.437 28.1099 184.172 28.1099H177.658ZM181.923 24.2326H184.094C185.451 24.2326 186.266 23.5346 186.266 21.596V7.48262C186.266 5.54397 185.451 4.84605 184.094 4.84605H181.923V24.2326ZM200.776 28.1099V0.968749H212.408V4.84605H205.041V12.0191H210.896V15.8964H205.041V24.2326H212.408V28.1099H200.776ZM222.229 28.1099V0.968749H227.58L231.728 17.2146H231.806V0.968749H235.606V28.1099H231.224L226.106 8.29685H226.029V28.1099H222.229ZM249.477 28.1099V4.84605H245.018V0.968749H258.201V4.84605H253.742V28.1099H249.477Z" fill="black"/>
<path d="M35.0936 73.9505C35.4275 74.4236 35.7151 74.9245 35.9377 75.4626L37.1994 74.2009C36.9396 73.6907 36.6335 73.199 36.2903 72.7445C36.0305 72.4105 35.7522 72.0858 35.4553 71.789C34.741 71.0746 33.9433 70.4902 33.0527 70.0449C32.8579 69.9522 32.6631 69.8594 32.4682 69.7759C32.2642 69.6924 32.0601 69.6089 31.8467 69.5347C31.689 69.479 31.5406 69.4327 31.3829 69.3863C30.548 69.1451 29.6852 69.0245 28.8039 69.0245C27.9226 69.0245 27.0598 69.1451 26.2249 69.3863C25.9652 69.4605 25.7147 69.544 25.455 69.6367C25.353 69.6739 25.2416 69.7202 25.1396 69.7666C24.9448 69.8501 24.7407 69.9429 24.5551 70.0356C23.6646 70.4809 22.8668 71.0654 22.1525 71.7797C21.2897 72.6424 20.6125 73.6536 20.1394 74.7668C19.759 75.6667 19.5179 76.6222 19.4344 77.5962C19.4065 77.8745 19.3972 78.1528 19.3972 78.4311C19.3972 78.7094 19.4065 78.9877 19.4344 79.266C19.5179 80.2401 19.759 81.1863 20.1394 82.0955C20.6125 83.218 21.2897 84.2198 22.1525 85.0826C22.4586 85.3887 22.774 85.667 23.1079 85.9175C23.5625 86.2607 24.0449 86.5669 24.5551 86.8266C24.7407 86.9287 24.9355 87.0122 25.1303 87.0956C25.2323 87.142 25.3437 87.1791 25.4457 87.2255C25.6962 87.3183 25.956 87.4111 26.2157 87.476C27.0506 87.7172 27.9133 87.8378 28.7946 87.8378C29.6759 87.8378 30.5387 87.7172 31.3736 87.476C31.5313 87.4296 31.689 87.3832 31.8374 87.3276C32.0415 87.2534 32.2549 87.1791 32.459 87.0956C32.6538 87.0122 32.8579 86.9194 33.0434 86.8266C33.934 86.3813 34.7317 85.7969 35.4461 85.0826C36.3088 84.2198 36.986 83.2087 37.4592 82.0955C37.8395 81.1956 38.0807 80.2401 38.1642 79.266C38.192 78.9877 38.2013 78.7094 38.2013 78.4311C38.2013 78.1528 38.192 77.8745 38.1642 77.5962H33.0434V71.9652C33.8412 72.494 34.537 73.1619 35.0843 73.9319L35.0936 73.9505ZM24.5551 84.9063C24.4716 84.8507 24.3882 84.795 24.3047 84.7393C22.5607 83.487 21.3547 81.5296 21.1135 79.2846H24.5551V84.9156V84.9063ZM24.5551 77.6055H21.1135C21.3639 75.2585 22.6719 73.2176 24.5551 71.9745V77.6055ZM27.1248 70.6294H29.1842C29.4161 70.6294 29.6203 70.6757 29.8151 70.7685C30.0748 70.8984 30.2882 71.121 30.4644 71.4272C30.7706 71.9559 30.9283 72.6981 30.9283 73.6443C30.9283 74.5905 30.7706 76.3253 30.4644 76.8355C30.1583 77.3458 29.7316 77.6055 29.1842 77.6055H27.1248V70.6294ZM30.7056 85.129C30.3809 85.6949 29.9449 85.9732 29.3791 85.9732H27.1341V79.266H29.3234C29.4162 79.266 29.5089 79.266 29.5924 79.2939C30.0284 79.3774 30.3995 79.8319 30.6778 80.3422C30.7242 80.4256 30.7706 80.5184 30.8077 80.6019C31.0581 81.1678 31.188 81.9007 31.188 82.7819C31.188 83.7838 31.0303 84.5724 30.7056 85.129ZM36.4943 79.2753C36.2439 81.6223 34.9359 83.6632 33.0527 84.9063V79.2753H36.4943Z" fill="#ECAD3A"/>
<path d="M54.9362 75.4253L54.8342 75.4067C52.1347 74.9521 51.3461 71.4548 53.5726 69.8777C56.3927 67.874 54.2683 63.4582 50.9472 64.423C48.3219 65.1837 46.0862 62.3821 47.4128 59.9887L47.4499 59.9237C49.1197 56.8995 45.2977 53.8475 42.7187 56.1481L42.6538 56.213C40.6129 58.0313 37.3938 56.4821 37.5423 53.7547V53.7176C37.7371 50.2666 32.9595 49.172 31.6422 52.3725V52.391C30.5847 54.9236 27.0039 54.9236 25.9556 52.391V52.3725C24.629 49.172 19.8515 50.2666 20.0463 53.7176V53.7547C20.204 56.4821 16.9757 58.0406 14.9348 56.213L14.8698 56.1481C12.2909 53.8475 8.46886 56.8995 10.1387 59.9237L10.1758 59.9887C11.5023 62.3821 9.26664 65.1837 6.64131 64.423C3.32023 63.4582 1.19589 67.874 4.01603 69.8777C6.25173 71.4641 5.45389 74.9521 2.75434 75.416L2.65231 75.4345C-0.752268 76.0097 -0.752268 80.9078 2.65231 81.483L2.75434 81.5015C5.45389 81.9561 6.24245 85.4534 4.01603 87.0305C1.19589 89.0343 3.32023 93.45 6.64131 92.4852C9.26664 91.7246 11.5023 94.5261 10.1758 96.9195L10.1387 96.9845C8.46886 100.009 12.2909 103.061 14.8698 100.76L14.9348 100.695C16.9757 98.8769 20.1947 100.426 20.0463 103.154V103.191C19.8515 106.642 24.629 107.736 25.9463 104.536V104.517C27.0038 101.985 30.5847 101.985 31.633 104.517V104.536C32.9595 107.736 37.7371 106.642 37.5423 103.191V103.154C37.3846 100.426 40.6129 98.8677 42.6538 100.695L42.7187 100.76C45.2977 103.061 49.1197 100.009 47.4499 96.9845L47.4128 96.9195C46.0862 94.5261 48.3219 91.7246 50.9472 92.4852C54.2683 93.45 56.3927 89.0343 53.5726 87.0305C51.3369 85.4442 52.1347 81.9561 54.8342 81.4923L54.9362 81.4737C58.3408 80.8985 58.3408 76.0004 54.9362 75.4253ZM28.7943 89.526C22.6809 89.526 17.7271 84.5722 17.7271 78.4588C17.7271 72.3454 22.6809 67.3916 28.7943 67.3916C34.9077 67.3916 39.8615 72.3454 39.8615 78.4588C39.8615 84.5722 34.9077 89.526 28.7943 89.526Z" fill="#ECAD3A"/>
</svg>
